<svg width="17" height="14" viewBox="0 0 17 14" fill="none" xmlns="http://www.w3.org/2000/svg">
<path d="M5.3125 5.52026C5.3125 5.20753 5.55156 4.95167 5.84375 4.95167H10.625V1.61477C10.625 1.36246 10.9105 1.23453 11.0766 1.41222L15.7781 6.49751C15.9873 6.7214 15.9873 7.08032 15.7781 7.3042L11.0766 12.3895C10.9105 12.5672 10.625 12.4428 10.625 12.1869V8.85004H5.84375C5.55156 8.85004 5.3125 8.59418 5.3125 8.28146V5.52026ZM4.25 5.52026V8.28146C4.25 9.22318 4.96387 9.98722 5.84375 9.98722H9.5625V12.1869C9.5625 13.4485 10.9902 14.0881 11.827 13.1926L16.5318 8.11088C17.1561 7.44279 17.1561 6.36247 16.5318 5.69439L11.827 0.609086C10.9936 -0.282884 9.5625 0.349669 9.5625 1.61477V3.8145H5.84375C4.96387 3.8145 4.25 4.58209 4.25 5.52026ZM0 1.78535V12.0199C0 12.9616 0.713867 13.7257 1.59375 13.7257H5.97656C6.1957 13.7257 6.375 13.5338 6.375 13.2992V13.0149C6.375 12.7804 6.1957 12.5885 5.97656 12.5885H1.59375C1.30156 12.5885 1.0625 12.3326 1.0625 12.0199V1.78535C1.0625 1.47263 1.30156 1.21676 1.59375 1.21676H5.97656C6.1957 1.21676 6.375 1.02487 6.375 0.790323V0.50603C6.375 0.271488 6.1957 0.0795898 5.97656 0.0795898H1.59375C0.713867 0.0795898 0 0.843628 0 1.78535Z" fill="black"/>
</svg>
