<svg width="20" height="14" viewBox="0 0 20 14" fill="none" xmlns="http://www.w3.org/2000/svg">
<path d="M19.13 3.99377L10.8488 1.12809C10.2922 0.935775 9.70813 0.935775 9.15156 1.12809L0.870313 3.99377C0.341875 4.17672 0 4.67574 0 5.26506C0 5.85438 0.341875 6.3534 0.87 6.53635L1.79844 6.85744C1.69531 7.06414 1.61906 7.28655 1.56938 7.51967C1.23531 7.69293 1 8.0518 1 8.4759C1 8.90167 1.23656 9.26256 1.57281 9.43481L1.00875 13.1761C0.958437 13.5102 1.13094 13.8273 1.36312 13.8273H2.63656C2.86875 13.8273 3.04156 13.5102 2.99094 13.1761L2.42719 9.43481C2.76344 9.26256 3 8.90167 3 8.4759C3 8.12137 2.82844 7.82236 2.58031 7.62737C2.62687 7.47151 2.69906 7.33104 2.78562 7.19893L4.45656 7.77721L4 11.6867C4 12.8691 6.68625 13.8273 10 13.8273C13.3138 13.8273 16 12.8691 16 11.6867L15.5434 7.77721L19.13 6.53602C19.6581 6.3534 20 5.85438 20 5.26506C20 4.67574 19.6581 4.17672 19.13 3.99377ZM14.9838 11.6152C14.6475 11.9941 12.9388 12.757 10 12.757C7.06125 12.757 5.3525 11.9941 5.01625 11.6152L5.42531 8.11234L9.15156 9.4017C9.23281 9.42979 9.95531 9.71041 10.8488 9.4017L14.575 8.11234L14.9838 11.6152ZM18.8213 5.51858L10.54 8.38426C10.1866 8.50667 9.81344 8.50667 9.46 8.38426L3.97031 6.48451L10.0919 5.2557C10.3634 5.20151 10.5422 4.9219 10.4913 4.63125C10.4406 4.34027 10.1737 4.14996 9.90812 4.20415L3.54 5.48179C3.1525 5.55939 2.80531 5.73766 2.50625 5.9778L1.17844 5.51825C0.933125 5.43296 0.945312 5.09214 1.17844 5.01154L9.45969 2.14586C9.93156 1.98264 10.3297 2.07328 10.5397 2.14586L18.8209 5.01154C19.0519 5.09148 19.0681 5.43296 18.8213 5.51858Z" fill="black"/>
</svg>
